<svg width="31" height="30" viewBox="0 0 31 30" fill="none" xmlns="http://www.w3.org/2000/svg">
<rect x="1" y="0.5" width="29" height="29" rx="2.5" stroke="#E2E9F6"/>
<path d="M15.5016 12.4993C14.5812 12.4993 13.835 13.059 13.835 13.7493C13.835 14.4397 14.5812 14.9993 15.5016 14.9993C16.4221 14.9993 17.1683 15.559 17.1683 16.2493C17.1683 16.9397 16.4221 17.4993 15.5016 17.4993M15.5016 12.4993C16.2273 12.4993 16.8447 12.8472 17.0735 13.3327M15.5016 12.4993V11.666M15.5016 17.4993C14.776 17.4993 14.1586 17.1515 13.9298 16.666M15.5016 17.4993V18.3327" stroke="#4B8BBE" stroke-width="1.28187" stroke-linecap="round"/>
<path d="M16.333 7.08301C16.333 7.08301 16.0696 7.08301 15.4997 7.08301C11.7677 7.08301 9.90175 7.08301 8.74238 8.24238C7.58301 9.40175 7.58301 11.2677 7.58301 14.9997C7.58301 18.7316 7.58301 20.5976 8.74238 21.757C9.90175 22.9163 11.7677 22.9163 15.4997 22.9163C19.2316 22.9163 21.0976 22.9163 22.257 21.757C23.4163 20.5976 23.4163 18.7316 23.4163 14.9997C23.4163 14.4298 23.4163 14.1663 23.4163 14.1663" stroke="#4B8BBE" stroke-width="1.28187" stroke-linecap="round"/>
<path d="M19.1809 10.3776C18.9294 10.6267 18.9276 11.0326 19.1767 11.284C19.4258 11.5355 19.8316 11.5374 20.0831 11.2882L19.1809 10.3776ZM23.8681 7.53819C24.1196 7.28906 24.1214 6.88324 23.8723 6.63179C23.6232 6.38033 23.2174 6.37844 22.9659 6.62758L23.8681 7.53819ZM20.06 11.0604L20.1718 10.4293L20.1718 10.4293L20.06 11.0604ZM19.4397 10.4398L18.8085 10.5515L18.8085 10.5515L19.4397 10.4398ZM22.9917 11.887C23.3456 11.8918 23.6365 11.6088 23.6413 11.2549C23.6462 10.9009 23.3632 10.6101 23.0092 10.6052L22.9917 11.887ZM19.8949 7.49077C19.89 7.13683 19.5991 6.85384 19.2452 6.85871C18.8912 6.86358 18.6082 7.15445 18.6131 7.5084L19.8949 7.49077ZM20.0831 11.2882L23.8681 7.53819L22.9659 6.62758L19.1809 10.3776L20.0831 11.2882ZM20.1718 10.4293C20.1328 10.4223 20.113 10.4081 20.1025 10.3976C20.092 10.3871 20.0777 10.3672 20.0708 10.3281L18.8085 10.5515C18.9131 11.1425 19.357 11.5868 19.9483 11.6915L20.1718 10.4293ZM19.9483 11.6915C20.7954 11.8415 22.2947 11.8774 22.9917 11.887L23.0092 10.6052C22.286 10.5953 20.897 10.5577 20.1718 10.4293L19.9483 11.6915ZM18.6131 7.5084C18.6227 8.20542 18.6587 9.70448 18.8085 10.5515L20.0708 10.3281C19.9425 9.60292 19.9048 8.21399 19.8949 7.49077L18.6131 7.5084Z" fill="#4B8BBE"/>
</svg>
