<svg width="41" height="38" viewBox="0 0 41 38" fill="none" xmlns="http://www.w3.org/2000/svg">
<rect width="41" height="38" rx="14" fill="#4B8BBE"/>
<path d="M29 13C28.7348 13 28.4804 13.1054 28.2929 13.2929C28.1054 13.4804 28 13.7348 28 14V24C28 24.7956 27.6839 25.5587 27.1213 26.1213C26.5587 26.6839 25.7956 27 25 27H15C14.7348 27 14.4804 27.1054 14.2929 27.2929C14.1054 27.4804 14 27.7348 14 28C14 28.2652 14.1054 28.5196 14.2929 28.7071C14.4804 28.8946 14.7348 29 15 29H25C26.3261 29 27.5979 28.4732 28.5355 27.5355C29.4732 26.5979 30 25.3261 30 24V14C30 13.7348 29.8946 13.4804 29.7071 13.2929C29.5196 13.1054 29.2652 13 29 13ZM26 22V12C26 11.2044 25.6839 10.4413 25.1213 9.87868C24.5587 9.31607 23.7956 9 23 9H13C12.2044 9 11.4413 9.31607 10.8787 9.87868C10.3161 10.4413 10 11.2044 10 12V22C10 22.7956 10.3161 23.5587 10.8787 24.1213C11.4413 24.6839 12.2044 25 13 25H23C23.7956 25 24.5587 24.6839 25.1213 24.1213C25.6839 23.5587 26 22.7956 26 22ZM18 11H20V15.86L19.64 15.56C19.4603 15.4103 19.2339 15.3284 19 15.3284C18.7661 15.3284 18.5397 15.4103 18.36 15.56L18 15.86V11ZM12 22V12C12 11.7348 12.1054 11.4804 12.2929 11.2929C12.4804 11.1054 12.7348 11 13 11H16V18C16 18.1912 16.0548 18.3783 16.1579 18.5393C16.2609 18.7003 16.408 18.8284 16.5816 18.9083C16.7553 18.9883 16.9482 19.0169 17.1375 18.9906C17.3269 18.9643 17.5047 18.8843 17.65 18.76L19 17.63L20.35 18.76C20.5311 18.9149 20.7617 19 21 19C21.1447 18.999 21.2876 18.9683 21.42 18.91C21.5936 18.8297 21.7405 18.7012 21.8433 18.5399C21.9461 18.3787 22.0005 18.1913 22 18V11H23C23.2652 11 23.5196 11.1054 23.7071 11.2929C23.8946 11.4804 24 11.7348 24 12V22C24 22.2652 23.8946 22.5196 23.7071 22.7071C23.5196 22.8946 23.2652 23 23 23H13C12.7348 23 12.4804 22.8946 12.2929 22.7071C12.1054 22.5196 12 22.2652 12 22Z" fill="#F8FBFD"/>
</svg>
