<svg width="24" height="25" viewBox="0 0 24 25" fill="none" xmlns="http://www.w3.org/2000/svg">
<path d="M17 3.75H16.75V3.5C16.75 3.086 16.414 2.75 16 2.75C15.586 2.75 15.25 3.086 15.25 3.5V3.75H8.75V3.5C8.75 3.086 8.414 2.75 8 2.75C7.586 2.75 7.25 3.086 7.25 3.5V3.75H7C4.381 3.75 2.25 5.881 2.25 8.5V17.5C2.25 20.119 4.381 22.25 7 22.25H17C19.619 22.25 21.75 20.119 21.75 17.5V8.5C21.75 5.881 19.619 3.75 17 3.75ZM7 5.25H7.25V6.5C7.25 6.914 7.586 7.25 8 7.25C8.414 7.25 8.75 6.914 8.75 6.5V5.25H15.25V6.5C15.25 6.914 15.586 7.25 16 7.25C16.414 7.25 16.75 6.914 16.75 6.5V5.25H17C18.792 5.25 20.25 6.708 20.25 8.5V8.75H3.75V8.5C3.75 6.708 5.208 5.25 7 5.25ZM17 20.75H7C5.208 20.75 3.75 19.292 3.75 17.5V10.25H20.25V17.5C20.25 19.292 18.792 20.75 17 20.75ZM17 13.5C17 14.052 16.552 14.5 16 14.5C15.448 14.5 15 14.052 15 13.5C15 12.948 15.448 12.5 16 12.5C16.552 12.5 17 12.948 17 13.5ZM13 13.5C13 14.052 12.552 14.5 12 14.5C11.448 14.5 11 14.052 11 13.5C11 12.948 11.448 12.5 12 12.5C12.552 12.5 13 12.948 13 13.5ZM9 13.5C9 14.052 8.552 14.5 8 14.5C7.448 14.5 7 14.052 7 13.5C7 12.948 7.448 12.5 8 12.5C8.552 12.5 9 12.948 9 13.5ZM17 17.5C17 18.052 16.552 18.5 16 18.5C15.448 18.5 15 18.052 15 17.5C15 16.948 15.448 16.5 16 16.5C16.552 16.5 17 16.948 17 17.5ZM13 17.5C13 18.052 12.552 18.5 12 18.5C11.448 18.5 11 18.052 11 17.5C11 16.948 11.448 16.5 12 16.5C12.552 16.5 13 16.948 13 17.5ZM9 17.5C9 18.052 8.552 18.5 8 18.5C7.448 18.5 7 18.052 7 17.5C7 16.948 7.448 16.5 8 16.5C8.552 16.5 9 16.948 9 17.5Z" fill="#59676E"/>
</svg>
