<svg width="20" height="20" viewBox="0 0 20 20" fill="none" xmlns="http://www.w3.org/2000/svg">
<path d="M19.3042 5.53852C19.3235 5.52467 19.3353 5.50234 19.3345 5.47851C19.3307 5.36751 19.3072 5.25795 19.2651 5.15494C19.2183 5.04021 19.1492 4.93586 19.0619 4.84787L15.0689 0.855135C14.9809 0.767858 14.8765 0.698809 14.7618 0.651947C14.6471 0.605084 14.5242 0.58133 14.4003 0.582047C14.2763 0.58133 14.1535 0.605084 14.0387 0.651947C13.924 0.698809 13.8196 0.767858 13.7316 0.855135L11.0665 3.5201L0.773124 13.8127C0.685841 13.9007 0.616787 14.005 0.569921 14.1198C0.523055 14.2345 0.499299 14.3573 0.500016 14.4813V18.474C0.500016 18.7238 0.599236 18.9633 0.775848 19.1399C0.952461 19.3165 1.192 19.4157 1.44177 19.4157H5.43479C5.56657 19.4229 5.69838 19.4023 5.82168 19.3552C5.94498 19.3082 6.05702 19.2357 6.15052 19.1426L16.3874 8.85002L19.0619 6.23214C19.1179 6.17268 19.1672 6.10737 19.2088 6.03743C19.2532 5.96293 19.2774 5.87754 19.2758 5.79083C19.2753 5.76599 19.2738 5.74117 19.2714 5.71643C19.27 5.70242 19.2699 5.68833 19.2709 5.67429C19.2724 5.65172 19.2728 5.62909 19.272 5.6065C19.2711 5.57989 19.2825 5.554 19.3042 5.53852V5.53852ZM5.60064 16.9804C5.24722 17.3338 4.76784 17.5323 4.26804 17.5323V17.5323C3.22732 17.5323 2.38352 16.6887 2.38352 15.6479V15.6479C2.38352 15.1482 2.58207 14.6688 2.93549 14.3154L10.4026 6.84884C11.1386 6.11297 12.3317 6.11298 13.0676 6.84885V6.84885C13.8036 7.58479 13.8036 8.77805 13.0676 9.514L5.60064 16.9804ZM16.3944 6.18274C16.0268 6.5529 15.4284 6.55396 15.0595 6.1851L13.7317 4.85734C13.3628 4.48844 13.3638 3.89 13.734 3.52241V3.52241C14.1024 3.15669 14.6971 3.15774 15.0642 3.52476L16.392 4.85252C16.7591 5.21958 16.7601 5.81439 16.3944 6.18274V6.18274Z" fill="white"/>
</svg>
