<svg width="24" height="24" viewBox="0 0 24 24" fill="none" xmlns="http://www.w3.org/2000/svg">
<path d="M16.9479 3.175C17.5351 2.58774 17.8288 2.2941 18.1541 2.15368C18.6227 1.95138 19.1541 1.95138 19.6227 2.15368C19.948 2.2941 20.2416 2.58774 20.8289 3.175C21.4162 3.76227 21.7098 4.05591 21.8502 4.3812C22.0525 4.84985 22.0525 5.3812 21.8502 5.84984C21.7098 6.17514 21.4162 6.46877 20.8289 7.05604L15.8073 12.0776C14.5701 13.3148 13.9515 13.9334 13.1768 14.2999C12.402 14.6665 11.5314 14.7524 9.79019 14.9242L9.00195 15.002L9.07973 14.2137C9.25154 12.4725 9.33744 11.6019 9.70396 10.8272C10.0705 10.0524 10.6891 9.43378 11.9263 8.19659L16.9479 3.175Z" stroke="#002F49" stroke-opacity="0.95" stroke-width="1.50071" stroke-linejoin="round"/>
<path d="M6.00195 15H3.75195C2.78545 15 2.00195 15.7835 2.00195 16.75C2.00195 17.7165 2.78545 18.5 3.75195 18.5H13.252C14.2185 18.5 15.002 19.2835 15.002 20.25C15.002 21.2165 14.2185 22 13.252 22H11.002" stroke="#002F49" stroke-opacity="0.95" stroke-width="1.50071" stroke-linecap="round" stroke-linejoin="round"/>
</svg>
