<svg width="24" height="25" viewBox="0 0 24 25" fill="none" xmlns="http://www.w3.org/2000/svg">
<path d="M16.9459 3.67305C17.5332 3.08578 17.8268 2.79215 18.1521 2.65173C18.6208 2.44942 19.1521 2.44942 19.6208 2.65173C19.946 2.79215 20.2397 3.08578 20.8269 3.67305C21.4142 4.26032 21.7079 4.55395 21.8483 4.87925C22.0506 5.3479 22.0506 5.87924 21.8483 6.34789C21.7079 6.67319 21.4142 6.96682 20.8269 7.55409L15.8054 12.5757C14.5682 13.8129 13.9496 14.4315 13.1748 14.798C12.4 15.1645 11.5294 15.2504 9.78823 15.4222L9 15.5L9.07778 14.7118C9.24958 12.9706 9.33549 12.1 9.70201 11.3252C10.0685 10.5504 10.6871 9.93183 11.9243 8.69464L16.9459 3.67305Z" stroke="#002F49" stroke-opacity="0.95" stroke-width="1.50071" stroke-linejoin="round"/>
<path d="M6 15.5H3.75C2.7835 15.5 2 16.2835 2 17.25C2 18.2165 2.7835 19 3.75 19H13.25C14.2165 19 15 19.7835 15 20.75C15 21.7165 14.2165 22.5 13.25 22.5H11" stroke="#002F49" stroke-opacity="0.95" stroke-width="1.50071" stroke-linecap="round" stroke-linejoin="round"/>
</svg>
