<svg width="21" height="20" viewBox="0 0 21 20" fill="none" xmlns="http://www.w3.org/2000/svg">
<path d="M11.3337 12.501C9.42394 17.501 4.07671 12.501 2.16699 17.501" stroke="#4B8BBE" stroke-width="1.28187" stroke-linecap="round" stroke-linejoin="round"/>
<path d="M13.4167 12.501H14.6677C16.6319 12.501 17.614 12.501 18.2242 11.8908C18.8344 11.2806 18.8344 10.2985 18.8344 8.33431V6.66764C18.8344 4.70346 18.8344 3.72136 18.2242 3.11117C17.614 2.50098 16.6319 2.50098 14.6677 2.50098L11.3344 2.50098C9.37023 2.50098 8.38814 2.50098 7.77794 3.11117C7.26093 3.62818 7.18198 4.41217 7.16992 5.83431" stroke="#4B8BBE" stroke-width="1.28187" stroke-linecap="round" stroke-linejoin="round"/>
<ellipse cx="6.75033" cy="10.4173" rx="2.08333" ry="2.08333" stroke="#4B8BBE" stroke-width="1.28187" stroke-linecap="round" stroke-linejoin="round"/>
<path d="M10.501 5.83398L15.501 5.83398M15.501 9.16732L13.001 9.16732" stroke="#4B8BBE" stroke-width="1.28187" stroke-linecap="round" stroke-linejoin="round"/>
</svg>
