<svg width="16" height="17" viewBox="0 0 16 17" fill="none" xmlns="http://www.w3.org/2000/svg">
<path fill-rule="evenodd" clip-rule="evenodd" d="M8 14.5C11.3137 14.5 14 11.8137 14 8.5C14 5.18629 11.3137 2.5 8 2.5C4.68629 2.5 2 5.18629 2 8.5C2 11.8137 4.68629 14.5 8 14.5ZM10.4503 7.6583C10.7218 7.40962 10.7403 6.98792 10.4916 6.7164C10.243 6.44488 9.82125 6.42636 9.54973 6.67503L7.08835 8.92932L6.45027 8.34492C6.17875 8.09625 5.75704 8.11477 5.50837 8.38629C5.25969 8.65781 5.27821 9.07951 5.54973 9.32819L6.63808 10.325C6.8929 10.5583 7.2838 10.5583 7.53862 10.325L10.4503 7.6583Z" fill="#F65252"/>
</svg>
