<svg width="21" height="20" viewBox="0 0 21 20" fill="none" xmlns="http://www.w3.org/2000/svg">
<path d="M17.181 1.66699C16.2532 1.66699 15.501 3.90557 15.501 6.66699H17.181C17.9907 6.66699 18.3955 6.66699 18.6461 6.38745C18.8967 6.1079 18.8531 5.73977 18.7658 5.0035C18.5355 3.05985 17.9129 1.66699 17.181 1.66699Z" stroke="#4B8BBE" stroke-width="1.28187"/>
<path d="M15.5003 6.71221V15.5385C15.5003 16.7982 15.5003 17.4281 15.1154 17.676C14.4863 18.0812 13.5137 17.2315 13.0246 16.9231C12.6204 16.6682 12.4184 16.5407 12.1941 16.5334C11.9518 16.5254 11.7461 16.6476 11.3094 16.9231L9.71699 17.9273C9.28745 18.1982 9.07265 18.3337 8.83366 18.3337C8.59466 18.3337 8.37987 18.1982 7.95033 17.9273L6.35793 16.9231C5.95378 16.6682 5.75171 16.5407 5.52744 16.5334C5.28509 16.5254 5.07943 16.6476 4.64272 16.9231C4.15362 17.2315 3.18105 18.0812 2.55195 17.676C2.16699 17.4281 2.16699 16.7982 2.16699 15.5385V6.71221C2.16699 4.33387 2.16699 3.1447 2.89923 2.40585C3.63146 1.66699 4.80997 1.66699 7.16699 1.66699H17.167" stroke="#4B8BBE" stroke-width="1.28187" stroke-linecap="round" stroke-linejoin="round"/>
<path d="M8.83366 6.66732C7.91318 6.66732 7.16699 7.22696 7.16699 7.91732C7.16699 8.60767 7.91318 9.16732 8.83366 9.16732C9.75413 9.16732 10.5003 9.72696 10.5003 10.4173C10.5003 11.1077 9.75413 11.6673 8.83366 11.6673M8.83366 6.66732C9.55934 6.66732 10.1767 7.01515 10.4055 7.50065M8.83366 6.66732V5.83398M8.83366 11.6673C8.10798 11.6673 7.49063 11.3195 7.26183 10.834M8.83366 11.6673V12.5007" stroke="#4B8BBE" stroke-width="1.28187" stroke-linecap="round"/>
</svg>
