<svg width="21" height="20" viewBox="0 0 21 20" fill="none" xmlns="http://www.w3.org/2000/svg">
<path d="M15.5003 4.53657C15.5003 4.53657 17.167 3.70031 18.2012 4.547C18.3695 4.68314 18.5796 4.95262 18.6719 5.15072C18.8337 5.49806 18.8337 5.83489 18.8337 6.50853V15.6827C18.8337 16.5214 17.967 17.0975 17.167 16.9102C16.4006 16.7308 15.5553 16.6314 14.667 16.6314C13.0694 16.6314 11.6108 16.953 10.5003 17.483C9.38988 18.0131 7.93122 18.3347 6.33366 18.3347C5.44539 18.3347 4.60006 18.2353 3.83366 18.0559C3.34099 17.9406 3.09465 17.8829 2.79948 17.6442C2.63113 17.5081 2.42102 17.2386 2.32876 17.0405C2.16699 16.6931 2.16699 16.3563 2.16699 15.6827V6.50853C2.16699 5.66979 3.03368 5.09372 3.83366 5.28097C4.47927 5.4321 5.18088 5.52648 5.91699 5.55247" stroke="#4B8BBE" stroke-width="1.28187" stroke-linecap="round"/>
<path d="M12.5837 11.2503C12.5837 12.4009 11.6509 13.3337 10.5003 13.3337C9.34973 13.3337 8.41699 12.4009 8.41699 11.2503C8.41699 10.0997 9.34973 9.16699 10.5003 9.16699C11.6509 9.16699 12.5837 10.0997 12.5837 11.2503Z" stroke="#4B8BBE" stroke-width="1.28187"/>
<path d="M5.08398 12.084L5.08398 12.0915" stroke="#4B8BBE" stroke-width="1.70916" stroke-linecap="round" stroke-linejoin="round"/>
<path d="M15.917 10.4111L15.917 10.4188" stroke="#4B8BBE" stroke-width="1.70916" stroke-linecap="round" stroke-linejoin="round"/>
<path d="M8.41699 4.58366C8.8266 5.00507 9.9168 6.66699 10.5003 6.66699M12.5837 4.58366C12.1741 5.00507 11.0838 6.66699 10.5003 6.66699M10.5003 6.66699V1.66699" stroke="#4B8BBE" stroke-width="1.28187" stroke-linecap="round" stroke-linejoin="round"/>
</svg>
