<svg width="25" height="25" viewBox="0 0 25 25" fill="none" xmlns="http://www.w3.org/2000/svg">
<path d="M18.5 6.05756C18.5 6.05756 20.5 5.05404 21.741 6.07007C21.943 6.23344 22.1952 6.55681 22.3059 6.79454C22.5 7.21135 22.5 7.61553 22.5 8.42391V19.4329C22.5 20.4394 21.46 21.1306 20.5 20.9059C19.5803 20.6907 18.5659 20.5713 17.5 20.5713C15.5829 20.5713 13.8325 20.9573 12.5 21.5933C11.1675 22.2294 9.41707 22.6153 7.5 22.6153C6.43408 22.6153 5.41969 22.496 4.5 22.2807C3.9088 22.1423 3.61319 22.0731 3.25898 21.7867C3.05696 21.6233 2.80483 21.3 2.69412 21.0622C2.5 20.6454 2.5 20.2412 2.5 19.4329V8.42391C2.5 7.41742 3.54003 6.72613 4.5 6.95084C5.27473 7.13219 6.11667 7.24544 7 7.27664" stroke="white" stroke-width="1.5" stroke-linecap="round"/>
<path d="M15 14.1152C15 15.4959 13.8807 16.6152 12.5 16.6152C11.1193 16.6152 10 15.4959 10 14.1152C10 12.7345 11.1193 11.6152 12.5 11.6152C13.8807 11.6152 15 12.7345 15 14.1152Z" stroke="white" stroke-width="1.5"/>
<path d="M6 15.1152L6 15.1242" stroke="white" stroke-width="2" stroke-linecap="round" stroke-linejoin="round"/>
<path d="M19 13.1074L19 13.1164" stroke="white" stroke-width="2" stroke-linecap="round" stroke-linejoin="round"/>
<path d="M10 6.11523C10.4915 6.62093 11.7998 8.61523 12.5 8.61523M15 6.11523C14.5085 6.62093 13.2002 8.61523 12.5 8.61523M12.5 8.61523V2.61523" stroke="white" stroke-width="1.5" stroke-linecap="round" stroke-linejoin="round"/>
</svg>
