<svg width="38" height="38" viewBox="0 0 38 38" fill="none" xmlns="http://www.w3.org/2000/svg">
<path d="M20.5841 4.74935C20.5841 3.8749 19.8753 3.16602 19.0008 3.16602C18.1264 3.16602 17.4175 3.8749 17.4175 4.74935V7.12435C17.4175 7.16826 17.4193 7.21175 17.4228 7.25476C12.9271 8.00608 9.5008 11.9135 9.5008 16.6226V22.9577C9.5008 23.7496 8.85146 25.123 8.14086 26.3889C7.14095 28.1701 7.32407 30.3176 9.23307 31.0445C11.1531 31.7756 14.2243 32.4577 19.0008 32.4577C23.7773 32.4577 26.8486 31.7756 28.7685 31.0445C30.6775 30.3176 30.8607 28.1701 29.8607 26.3889C29.1501 25.123 28.5008 23.7496 28.5008 22.9577V16.6234C28.5008 11.9143 25.0745 8.00623 20.5788 7.25478C20.5823 7.21177 20.5841 7.16827 20.5841 7.12435V4.74935Z" fill="#4B8BBE"/>
<path d="M14.1243 33.7633C14.1834 33.8148 14.2548 33.875 14.3379 33.9415C14.5759 34.1319 14.9158 34.3786 15.3455 34.6241C16.1982 35.1114 17.459 35.6244 19.0008 35.6244C20.5426 35.6244 21.8034 35.1114 22.6562 34.6241C23.0858 34.3786 23.4258 34.1319 23.6638 33.9415C23.7469 33.875 23.8183 33.8148 23.8774 33.7633C22.493 33.9357 20.8787 34.0411 19.0008 34.0411C17.123 34.0411 15.5087 33.9357 14.1243 33.7633Z" fill="#4B8BBE"/>
</svg>
