<svg width="25" height="25" viewBox="0 0 25 25" fill="none" xmlns="http://www.w3.org/2000/svg">
<path d="M5.30702 15.7964C4.04945 16.5335 0.752166 18.0386 2.76043 19.922C3.74145 20.842 4.83406 21.5 6.20773 21.5H14.0462C15.4199 21.5 16.5125 20.842 17.4935 19.922C19.5017 18.0386 16.2045 16.5335 14.9469 15.7964C11.9979 14.0679 8.25601 14.0679 5.30702 15.7964Z" stroke="white" stroke-width="1.5" stroke-linecap="round" stroke-linejoin="round"/>
<path d="M14.127 7.5C14.127 9.70914 12.3361 11.5 10.127 11.5C7.91781 11.5 6.12695 9.70914 6.12695 7.5C6.12695 5.29086 7.91781 3.5 10.127 3.5C12.3361 3.5 14.127 5.29086 14.127 7.5Z" stroke="white" stroke-width="1.5"/>
<path d="M19.627 4.5V9.5M22.127 7L17.127 7" stroke="white" stroke-width="1.5" stroke-linecap="round" stroke-linejoin="round"/>
</svg>
