<svg width="24" height="25" viewBox="0 0 24 25" fill="none" xmlns="http://www.w3.org/2000/svg">
<path d="M21.53 20.969L16.836 16.275C18.03 14.844 18.75 13.005 18.75 11C18.75 6.451 15.049 2.75 10.5 2.75C5.951 2.75 2.25 6.451 2.25 11C2.25 15.549 5.951 19.25 10.5 19.25C12.505 19.25 14.344 18.5301 15.775 17.3361L20.469 22.03C20.615 22.176 20.807 22.25 20.999 22.25C21.191 22.25 21.383 22.177 21.529 22.03C21.823 21.737 21.823 21.262 21.53 20.969ZM3.75 11C3.75 7.278 6.778 4.25 10.5 4.25C14.222 4.25 17.25 7.278 17.25 11C17.25 14.722 14.222 17.75 10.5 17.75C6.778 17.75 3.75 14.722 3.75 11Z" fill="#002F49" fill-opacity="0.95"/>
</svg>
