<svg width="21" height="20" viewBox="0 0 21 20" fill="none" xmlns="http://www.w3.org/2000/svg">
<path d="M20.03 18.469L15.336 13.775C16.53 12.344 17.25 10.505 17.25 8.5C17.25 3.951 13.549 0.25 9 0.25C4.451 0.25 0.75 3.951 0.75 8.5C0.75 13.049 4.451 16.75 9 16.75C11.005 16.75 12.844 16.0301 14.275 14.8361L18.969 19.53C19.115 19.676 19.307 19.75 19.499 19.75C19.691 19.75 19.883 19.677 20.029 19.53C20.323 19.237 20.323 18.762 20.03 18.469ZM2.25 8.5C2.25 4.778 5.278 1.75 9 1.75C12.722 1.75 15.75 4.778 15.75 8.5C15.75 12.222 12.722 15.25 9 15.25C5.278 15.25 2.25 12.222 2.25 8.5Z" fill="#F8FBFD"/>
</svg>
