<svg width="12" height="13" viewBox="0 0 12 13" fill="none" xmlns="http://www.w3.org/2000/svg">
<path fill-rule="evenodd" clip-rule="evenodd" d="M6 12.5C9.31371 12.5 12 9.81371 12 6.5C12 3.18629 9.31371 0.5 6 0.5C2.68629 0.5 0 3.18629 0 6.5C0 9.81371 2.68629 12.5 6 12.5ZM8.45027 5.6583C8.72179 5.40962 8.74031 4.98792 8.49163 4.7164C8.24296 4.44488 7.82125 4.42636 7.54973 4.67503L5.08835 6.92932L4.45027 6.34492C4.17875 6.09625 3.75704 6.11477 3.50837 6.38629C3.25969 6.65781 3.27821 7.07951 3.54973 7.32819L4.63808 8.32497C4.8929 8.55834 5.2838 8.55834 5.53862 8.32497L8.45027 5.6583Z" fill="#08C074"/>
</svg>
