<svg width="1075" height="197" viewBox="0 0 1075 197" fill="none" xmlns="http://www.w3.org/2000/svg">
<circle cx="1051" cy="143" r="24" fill="#F8FBFD"/>
<path d="M48.1301 77.2829H118.043V103.423H48.1301V77.2829ZM50.6196 137.031H129.661V164H17.2189V18.78H126.964V45.7494H50.6196V137.031ZM201.434 165.66C190.923 165.66 181.449 163.308 173.013 158.606C164.576 153.765 157.868 147.058 152.889 138.483C148.049 129.908 145.628 119.812 145.628 108.194C145.628 96.4381 148.049 86.2727 152.889 77.6978C157.868 69.1229 164.576 62.4843 173.013 57.7819C181.449 53.0796 190.923 50.7284 201.434 50.7284C210.839 50.7284 219.068 52.803 226.122 56.9521C233.175 61.1012 238.638 67.3941 242.511 75.8307C246.383 84.2673 248.32 95.0551 248.32 108.194C248.32 121.195 246.453 131.982 242.718 140.557C238.984 148.994 233.59 155.287 226.537 159.436C219.622 163.585 211.254 165.66 201.434 165.66ZM207.036 139.105C212.291 139.105 217.063 137.86 221.35 135.371C225.638 132.881 229.026 129.355 231.516 124.791C234.144 120.088 235.457 114.556 235.457 108.194C235.457 101.694 234.144 96.1615 231.516 91.5974C229.026 87.0334 225.638 83.5066 221.35 81.0171C217.063 78.5276 212.291 77.2829 207.036 77.2829C201.642 77.2829 196.801 78.5276 192.514 81.0171C188.226 83.5066 184.769 87.0334 182.141 91.5974C179.651 96.1615 178.407 101.694 178.407 108.194C178.407 114.556 179.651 120.088 182.141 124.791C184.769 129.355 188.226 132.881 192.514 135.371C196.801 137.86 201.642 139.105 207.036 139.105ZM236.287 164V141.18L236.91 107.987L234.835 75.0009V10.0668H267.198V164H236.287ZM344.244 165.66C334.978 165.66 326.68 163.862 319.349 160.266C312.158 156.67 306.556 151.207 302.545 143.877C298.535 136.408 296.529 126.934 296.529 115.455V52.388H328.893V110.684C328.893 119.95 330.829 126.796 334.701 131.222C338.712 135.509 344.314 137.653 351.505 137.653C356.484 137.653 360.91 136.616 364.783 134.541C368.655 132.328 371.698 129.009 373.911 124.583C376.124 120.019 377.23 114.349 377.23 107.572V52.388H409.593V164H378.89V133.296L384.491 142.217C380.757 149.962 375.225 155.84 367.894 159.851C360.703 163.723 352.819 165.66 344.244 165.66ZM488.536 165.037C478.163 165.037 468.827 162.686 460.529 157.984C452.369 153.281 445.938 146.781 441.235 138.483C436.533 130.046 434.182 120.365 434.182 109.439C434.182 98.3744 436.533 88.693 441.235 80.3948C445.938 72.0965 452.369 65.6653 460.529 61.1012C468.827 56.3989 478.163 54.0477 488.536 54.0477C498.079 54.0477 506.584 56.1914 514.053 60.4789C521.66 64.7663 527.676 71.0592 532.102 79.3575C536.666 87.5175 538.948 97.5446 538.948 109.439C538.948 121.195 536.735 131.222 532.309 139.52C527.883 147.818 521.867 154.18 514.26 158.606C506.792 162.894 498.217 165.037 488.536 165.037ZM489.573 151.967C497.318 151.967 504.233 150.239 510.319 146.781C516.542 143.185 521.383 138.206 524.841 131.844C528.437 125.344 530.235 117.875 530.235 109.439C530.235 100.864 528.437 93.3954 524.841 87.0334C521.383 80.6714 516.542 75.7615 510.319 72.3039C504.233 68.708 497.318 66.91 489.573 66.91C481.966 66.91 475.12 68.708 469.035 72.3039C462.949 75.7615 458.109 80.6714 454.513 87.0334C450.917 93.3954 449.119 100.864 449.119 109.439C449.119 117.875 450.917 125.344 454.513 131.844C458.109 138.206 462.949 143.185 469.035 146.781C475.12 150.239 481.966 151.967 489.573 151.967ZM530.65 164V131.222L532.102 109.231L530.027 87.2408V10.0668H544.757V164H530.65ZM632.041 165.037C620.7 165.037 610.742 162.686 602.167 157.984C593.592 153.143 586.884 146.574 582.044 138.275C577.203 129.839 574.783 120.227 574.783 109.439C574.783 98.651 577.065 89.108 581.629 80.8097C586.331 72.5114 592.693 66.0111 600.715 61.3087C608.875 56.468 618.003 54.0477 628.099 54.0477C638.334 54.0477 647.393 56.3989 655.276 61.1012C663.298 65.6653 669.591 72.1656 674.155 80.6022C678.719 88.9005 681.001 98.5127 681.001 109.439C681.001 110.13 680.932 110.891 680.793 111.721C680.793 112.412 680.793 113.173 680.793 114.003H585.985V103.008H672.91L667.101 107.364C667.101 99.4808 665.372 92.4964 661.915 86.411C658.595 80.1873 654.031 75.3466 648.223 71.889C642.414 68.4314 635.706 66.7026 628.099 66.7026C620.631 66.7026 613.923 68.4314 607.976 71.889C602.029 75.3466 597.396 80.1873 594.076 86.411C590.757 92.6347 589.097 99.7574 589.097 107.779V110.061C589.097 118.359 590.895 125.69 594.491 132.052C598.225 138.275 603.343 143.185 609.843 146.781C616.482 150.239 624.019 151.967 632.456 151.967C639.094 151.967 645.249 150.792 650.92 148.441C656.728 146.09 661.707 142.494 665.856 137.653L674.155 147.196C669.314 153.005 663.229 157.431 655.899 160.473C648.707 163.516 640.754 165.037 632.041 165.037ZM740.233 165.037C731.243 165.037 722.738 163.793 714.716 161.303C706.694 158.675 700.401 155.425 695.837 151.553L702.476 139.935C706.902 143.254 712.572 146.159 719.487 148.648C726.403 150.999 733.664 152.175 741.27 152.175C751.643 152.175 759.112 150.584 763.676 147.403C768.24 144.084 770.522 139.728 770.522 134.334C770.522 130.323 769.208 127.211 766.58 124.998C764.091 122.647 760.771 120.918 756.622 119.812C752.473 118.567 747.84 117.53 742.723 116.7C737.605 115.87 732.488 114.902 727.371 113.795C722.392 112.689 717.828 111.098 713.679 109.024C709.529 106.811 706.141 103.837 703.513 100.103C701.024 96.369 699.779 91.39 699.779 85.1663C699.779 79.2192 701.439 73.8944 704.758 69.1921C708.077 64.4897 712.918 60.8246 719.28 58.1968C725.78 55.4307 733.664 54.0477 742.93 54.0477C749.984 54.0477 757.037 55.0158 764.091 56.9521C771.144 58.7501 776.953 61.1704 781.517 64.2131L775.086 76.0382C770.245 72.7188 765.059 70.3677 759.527 68.9846C753.994 67.4633 748.462 66.7026 742.93 66.7026C733.11 66.7026 725.849 68.4314 721.147 71.889C716.583 75.2083 714.301 79.4958 714.301 84.7514C714.301 88.9005 715.546 92.1507 718.035 94.5018C720.663 96.853 724.051 98.7201 728.201 100.103C732.488 101.348 737.121 102.385 742.1 103.215C747.217 104.045 752.266 105.082 757.245 106.327C762.362 107.433 766.995 109.024 771.144 111.098C775.432 113.035 778.82 115.87 781.31 119.604C783.937 123.2 785.251 127.972 785.251 133.919C785.251 140.281 783.453 145.813 779.857 150.515C776.4 155.079 771.283 158.675 764.506 161.303C757.867 163.793 749.776 165.037 740.233 165.037ZM823.897 135.786L824.312 116.907L892.15 55.085H910.199L862.276 100.933L853.978 107.987L823.897 135.786ZM812.279 164V10.0668H827.009V164H812.279ZM896.714 164L851.281 107.364L860.824 95.954L914.763 164H896.714ZM962.885 165.037C953.895 165.037 945.389 163.793 937.368 161.303C929.346 158.675 923.053 155.425 918.489 151.553L925.128 139.935C929.553 143.254 935.224 146.159 942.139 148.648C949.054 150.999 956.315 152.175 963.922 152.175C974.295 152.175 981.763 150.584 986.328 147.403C990.892 144.084 993.174 139.728 993.174 134.334C993.174 130.323 991.86 127.211 989.232 124.998C986.742 122.647 983.423 120.918 979.274 119.812C975.125 118.567 970.492 117.53 965.374 116.7C960.257 115.87 955.14 114.902 950.023 113.795C945.044 112.689 940.48 111.098 936.33 109.024C932.181 106.811 928.793 103.837 926.165 100.103C923.675 96.369 922.431 91.39 922.431 85.1663C922.431 79.2192 924.09 73.8944 927.41 69.1921C930.729 64.4897 935.57 60.8246 941.932 58.1968C948.432 55.4307 956.315 54.0477 965.582 54.0477C972.635 54.0477 979.689 55.0158 986.742 56.9521C993.796 58.7501 999.605 61.1704 1004.17 64.2131L997.738 76.0382C992.897 72.7188 987.711 70.3677 982.178 68.9846C976.646 67.4633 971.114 66.7026 965.582 66.7026C955.762 66.7026 948.501 68.4314 943.799 71.889C939.235 75.2083 936.953 79.4958 936.953 84.7514C936.953 88.9005 938.197 92.1507 940.687 94.5018C943.315 96.853 946.703 98.7201 950.852 100.103C955.14 101.348 959.773 102.385 964.752 103.215C969.869 104.045 974.917 105.082 979.896 106.327C985.014 107.433 989.647 109.024 993.796 111.098C998.083 113.035 1001.47 115.87 1003.96 119.604C1006.59 123.2 1007.9 127.972 1007.9 133.919C1007.9 140.281 1006.11 145.813 1002.51 150.515C999.052 155.079 993.934 158.675 987.157 161.303C980.519 163.793 972.428 165.037 962.885 165.037Z" fill="#F8FBFD"/>
</svg>
