<svg width="47" height="53" viewBox="0 0 47 53" fill="none" xmlns="http://www.w3.org/2000/svg">
<rect x="0.691176" y="0.691176" width="45.6176" height="51.1471" rx="3.45588" fill="#4B8BBE"/>
<rect x="0.691176" y="0.691176" width="45.6176" height="51.1471" rx="3.45588" stroke="#E2E9F6" stroke-width="1.38235"/>
<path d="M30.4118 19.3535C31.9095 19.5018 32.9176 19.8368 33.6701 20.5941C35.0197 21.9523 35.0197 24.1383 35.0197 28.5104C35.0197 32.8824 35.0197 35.0684 33.6701 36.4267C32.3205 37.7849 30.1483 37.7849 25.804 37.7849H21.1962C16.8518 37.7849 14.6797 37.7849 13.3301 36.4267C11.9805 35.0684 11.9805 32.8824 11.9805 28.5104C11.9805 24.1383 11.9805 21.9523 13.3301 20.5941C14.0825 19.8368 15.0906 19.5018 16.5883 19.3535" stroke="#F8FBFD" stroke-width="1.77199" stroke-linecap="round"/>
<path d="M20.6191 18.7773C21.1854 19.3599 22.6924 21.6572 23.499 21.6572M26.3789 18.7773C25.8127 19.3599 24.3057 21.6572 23.499 21.6572M23.499 21.6572V14.7455" stroke="#F8FBFD" stroke-width="1.77199" stroke-linecap="round" stroke-linejoin="round"/>
<path d="M30.9941 28.5693H30.9838" stroke="#F8FBFD" stroke-width="2.36266" stroke-linecap="round" stroke-linejoin="round"/>
<path d="M16.0215 28.5693H16.0111" stroke="#F8FBFD" stroke-width="2.36266" stroke-linecap="round" stroke-linejoin="round"/>
<path d="M26.3789 28.5684C26.3789 30.1589 25.0896 31.4483 23.499 31.4483C21.9085 31.4483 20.6191 30.1589 20.6191 28.5684C20.6191 26.9779 21.9085 25.6885 23.499 25.6885C25.0896 25.6885 26.3789 26.9779 26.3789 28.5684Z" stroke="#F8FBFD" stroke-width="1.77199"/>
</svg>
