<svg width="23" height="22" viewBox="0 0 23 22" fill="none" xmlns="http://www.w3.org/2000/svg">
<path d="M17.5 4.20599C17.5 4.20599 19.5 3.20248 20.741 4.21851C20.943 4.38187 21.1952 4.70525 21.3059 4.94298C21.5 5.35979 21.5 5.76397 21.5 6.57234V17.5813C21.5 18.5878 20.46 19.2791 19.5 19.0544C18.5803 18.8391 17.5659 18.7198 16.5 18.7198C14.5829 18.7198 12.8325 19.1057 11.5 19.7418C10.1675 20.3778 8.41707 20.7638 6.5 20.7638C5.43408 20.7638 4.41969 20.6444 3.5 20.4292C2.9088 20.2908 2.61319 20.2216 2.25898 19.9351C2.05696 19.7718 1.80483 19.4484 1.69412 19.2107C1.5 18.7939 1.5 18.3897 1.5 17.5813V6.57234C1.5 5.56586 2.54003 4.87457 3.5 5.09928C4.27473 5.28063 5.11667 5.39388 6 5.42507" stroke="white" stroke-width="1.5" stroke-linecap="round"/>
<path d="M14 12.2637C14 13.6444 12.8807 14.7637 11.5 14.7637C10.1193 14.7637 9 13.6444 9 12.2637C9 10.883 10.1193 9.76367 11.5 9.76367C12.8807 9.76367 14 10.883 14 12.2637Z" stroke="white" stroke-width="1.5"/>
<path d="M5 13.2637L5 13.2727" stroke="white" stroke-width="2" stroke-linecap="round" stroke-linejoin="round"/>
<path d="M18 11.2559L18 11.2648" stroke="white" stroke-width="2" stroke-linecap="round" stroke-linejoin="round"/>
<path d="M9 4.26367C9.49153 4.76937 10.7998 6.76367 11.5 6.76367M14 4.26367C13.5085 4.76937 12.2002 6.76367 11.5 6.76367M11.5 6.76367V0.763672" stroke="white" stroke-width="1.5" stroke-linecap="round" stroke-linejoin="round"/>
</svg>
