<svg width="25" height="24" viewBox="0 0 25 24" fill="none" xmlns="http://www.w3.org/2000/svg">
<path d="M5.68007 15.2964C4.42249 16.0335 1.12521 17.5386 3.13348 19.422C4.1145 20.342 5.2071 21 6.58077 21H14.4192C15.7929 21 16.8855 20.342 17.8665 19.422C19.8748 17.5386 16.5775 16.0335 15.3199 15.2964C12.3709 13.5679 8.62906 13.5679 5.68007 15.2964Z" stroke="#002F49" stroke-opacity="0.95" stroke-width="1.5" stroke-linecap="round" stroke-linejoin="round"/>
<path d="M14.5 7C14.5 9.20914 12.7091 11 10.5 11C8.29086 11 6.5 9.20914 6.5 7C6.5 4.79086 8.29086 3 10.5 3C12.7091 3 14.5 4.79086 14.5 7Z" stroke="#002F49" stroke-opacity="0.95" stroke-width="1.5"/>
<path d="M20 4V9M22.5 6.5L17.5 6.5" stroke="#002F49" stroke-opacity="0.95" stroke-width="1.5" stroke-linecap="round" stroke-linejoin="round"/>
</svg>
