<svg width="20" height="22" viewBox="0 0 20 22" fill="none" xmlns="http://www.w3.org/2000/svg">
<path d="M13 14C13 14.8284 13.6716 15.5 14.5 15.5C15.3284 15.5 16 14.8284 16 14C16 13.1716 15.3284 12.5 14.5 12.5C13.6716 12.5 13 13.1716 13 14Z" stroke="#F8FBFD" stroke-width="1.5"/>
<path d="M13.0038 6.80281C7.57619 6.42671 3.1047 5.62133 1 5V14.0614C1 16.0558 1 17.0531 1.61958 17.8663C2.23916 18.6796 3.08923 18.9093 4.78937 19.3687C7.53623 20.1109 10.4235 20.553 13.0106 20.8058C15.6919 21.0677 17.0325 21.1987 18.0163 20.2998C19 19.4008 19 17.9566 19 15.0683V13.0546C19 10.2497 19 8.8473 18.1929 7.97688C17.3859 7.10646 15.9252 7.00525 13.0038 6.80281Z" stroke="#F8FBFD" stroke-width="1.5" stroke-linecap="round" stroke-linejoin="round"/>
<path d="M15.6258 7C16.0035 5.57673 16.3453 2.98822 15.327 1.70292C14.6816 0.88827 13.7223 0.966538 12.7818 1.04926C7.83791 1.48406 4.34544 2.36731 2.39301 2.96737C1.55348 3.2254 1 4.04522 1 4.96044" stroke="#F8FBFD" stroke-width="1.5" stroke-linejoin="round"/>
</svg>
