<svg width="19" height="19" viewBox="0 0 19 19" fill="none" xmlns="http://www.w3.org/2000/svg">
<path d="M5.75 5.50259C4.95056 5.50259 4.18977 5.4131 3.5 5.25164C2.78002 5.08311 2 5.60157 2 6.35644V14.6132C2 15.2194 2 15.5226 2.14559 15.8352C2.22862 16.0135 2.41772 16.256 2.56924 16.3785C2.8349 16.5934 3.0566 16.6453 3.5 16.7491C4.18977 16.9105 4.95056 17 5.75 17C7.1878 17 8.5006 16.7105 9.5 16.2335C10.4994 15.7565 11.8122 15.467 13.25 15.467C14.0494 15.467 14.8102 15.5565 15.5 15.718C16.22 15.8865 17 15.368 17 14.6132V6.35644C17 5.75016 17 5.44702 16.8544 5.13441C16.7714 4.95612 16.5823 4.71359 16.4308 4.59106C15.5 3.82904 14 4.58167 14 4.58167" stroke="white" stroke-width="1.5" stroke-linecap="round"/>
<path d="M11.375 10.625C11.375 11.6605 10.5355 12.5 9.5 12.5C8.46447 12.5 7.625 11.6605 7.625 10.625C7.625 9.58947 8.46447 8.75 9.5 8.75C10.5355 8.75 11.375 9.58947 11.375 10.625Z" stroke="white" stroke-width="1.5"/>
<path d="M4.625 11.375L4.625 11.3817" stroke="white" stroke-width="2" stroke-linecap="round" stroke-linejoin="round"/>
<path d="M14.375 9.87109L14.375 9.87783" stroke="white" stroke-width="2" stroke-linecap="round" stroke-linejoin="round"/>
<path d="M7.625 3.875C7.99365 3.49573 8.97483 2 9.5 2M11.375 3.875C11.0064 3.49573 10.0252 2 9.5 2M9.5 2V6.5" stroke="white" stroke-width="1.5" stroke-linecap="round" stroke-linejoin="round"/>
</svg>
