<svg width="592" height="603" viewBox="0 0 592 603" fill="none" xmlns="http://www.w3.org/2000/svg">
<path d="M421.971 157.817C421.971 157.817 374.301 104.618 298.824 107.192C223.346 109.766 158.993 161.25 105.762 201.578C52.5305 241.907 38.2302 304.545 69.2154 353.455C100.201 402.364 149.459 381.771 212.224 413.518C274.989 445.266 286.906 463.286 356.821 455.563C426.736 447.841 479.968 368.899 472.022 284.809C464.078 200.72 421.971 157.817 421.971 157.817Z" fill="#7D97F4"/>
<path opacity="0.7" d="M421.971 157.817C421.971 157.817 374.301 104.618 298.824 107.192C223.346 109.766 158.993 161.25 105.762 201.578C52.5305 241.907 38.2302 304.545 69.2154 353.455C100.201 402.364 149.459 381.771 212.224 413.518C274.989 445.266 286.906 463.286 356.821 455.563C426.736 447.841 479.968 368.899 472.022 284.809C464.078 200.72 421.971 157.817 421.971 157.817Z" fill="#F8F9FA"/>
<path d="M305.027 486.344C434.838 486.344 540.071 480.497 540.071 473.285C540.071 466.073 434.838 460.227 305.027 460.227C175.216 460.227 69.9827 466.073 69.9827 473.285C69.9827 480.497 175.216 486.344 305.027 486.344Z" fill="#7D97F4"/>
<path opacity="0.3" d="M305.027 486.344C434.838 486.344 540.071 480.497 540.071 473.285C540.071 466.073 434.838 460.227 305.027 460.227C175.216 460.227 69.9827 466.073 69.9827 473.285C69.9827 480.497 175.216 486.344 305.027 486.344Z" fill="#F8F9FA"/>
<path d="M443.927 276.417C443.859 276.425 444.752 271.921 444.84 271.644C445.862 268.432 449.692 262.837 453.403 262.844C456.078 262.849 457.89 265.328 457.626 267.928C457.357 270.584 455.015 272.848 452.897 274.155C450.41 275.688 443.931 276.417 443.927 276.417Z" fill="#7D97F4"/>
<path d="M436.739 246.127C440.233 247.405 441.971 253.991 441.862 257.366C441.852 257.658 441.19 262.202 441.129 262.172C441.129 262.172 441.072 262.143 441.058 262.136C441.34 263.173 441.631 264.29 441.924 265.515C442.449 267.782 443.022 270.35 443.459 273.186C443.904 276.019 444.309 279.111 444.446 282.406C444.59 285.71 444.574 289.191 444.103 292.777C444.098 292.816 444.088 292.859 444.082 292.9C444.54 291.895 445.911 289.127 446.04 288.927C447.859 286.104 453.002 281.737 456.581 282.743C459.16 283.468 460.265 286.346 459.336 288.782C458.388 291.272 455.543 292.825 453.162 293.515C450.477 294.294 444.489 293.374 444.012 293.299C443.532 296.709 442.767 300.169 441.806 303.627C441.258 305.605 440.646 307.579 440.006 309.551C440.429 308.695 440.814 307.932 440.879 307.832C442.698 305.009 447.841 300.643 451.42 301.648C453.999 302.372 455.102 305.25 454.175 307.688C453.228 310.177 450.382 311.73 448 312.421C445.583 313.122 440.463 312.442 439.11 312.244C438.857 312.998 438.613 313.754 438.357 314.506C437.132 318.118 435.892 321.718 434.784 325.287C434.392 326.543 434.052 327.797 433.708 329.05C434.084 328.29 434.407 327.653 434.466 327.561C436.285 324.738 441.428 320.371 445.009 321.377C447.588 322.101 448.692 324.98 447.764 327.418C446.817 329.906 443.97 331.46 441.588 332.15C439.282 332.818 434.551 332.235 432.941 332.007C432.627 333.299 432.309 334.595 432.061 335.862C431.91 336.732 431.707 337.558 431.604 338.439C431.484 339.31 431.364 340.172 431.247 341.026C431.08 342.68 430.897 344.384 430.772 346C430.678 347.124 430.609 348.196 430.536 349.277C430.911 348.02 431.696 345.577 431.785 345.38C432.7 343.339 434.967 340.406 437.467 338.792C437.6 338.49 437.759 338.201 437.946 337.928C439.418 335.787 442.381 335.122 444.406 336.902C447.217 339.373 446.515 346.155 445.222 349.264C445.146 349.448 444.099 351.344 443.421 352.529C443.924 351.894 444.405 351.271 444.932 350.625C445.963 349.338 447.029 348.085 448.171 346.732C448.746 346.099 449.326 345.46 449.912 344.813C450.479 344.16 451.16 343.543 451.787 342.898C453.273 341.436 454.848 340.028 456.465 338.644C455.362 337.722 451.486 334.389 450.372 332.122C449.263 329.867 448.465 326.681 449.626 324.288C450.763 321.945 453.593 320.829 455.859 322.277C459.005 324.285 459.32 331.099 458.504 334.372C458.453 334.575 457.609 336.857 457.122 338.102C458.101 337.278 459.074 336.451 460.091 335.651C463.026 333.34 466.066 331.094 469.09 328.84C470.017 328.15 470.931 327.45 471.851 326.755C471.455 326.43 466.766 322.57 465.518 320.032C464.409 317.778 463.611 314.591 464.772 312.198C465.909 309.855 468.739 308.739 471.005 310.187C474.151 312.196 474.466 319.008 473.65 322.281C473.588 322.529 472.369 325.809 472.019 326.629C474.042 325.095 476.044 323.548 477.957 321.94C480.6 319.726 483.072 317.406 485.304 314.976C485.119 314.825 480.207 310.818 478.928 308.22C477.819 305.964 477.021 302.778 478.182 300.384C479.319 298.041 482.149 296.925 484.415 298.373C487.561 300.382 487.874 307.194 487.06 310.468C487.006 310.682 486.079 313.186 485.612 314.364C485.71 314.427 485.692 314.416 485.79 314.479C488.151 311.847 490.112 308.995 491.818 306.233C492.809 304.635 493.67 303.052 494.472 301.492C493.482 300.842 488.99 297.817 487.585 295.607C486.24 293.491 485.104 290.412 485.999 287.903C486.876 285.447 489.569 284.021 491.977 285.207C495.321 286.852 496.367 293.587 495.91 296.933C495.885 297.115 495.432 298.935 495.084 300.256C495.435 299.547 495.811 298.821 496.134 298.134C497.356 295.559 498.317 293.124 499.153 290.962C499.618 289.728 500.015 288.603 500.375 287.546C499.731 286.391 497.191 281.704 496.949 279.132C496.712 276.621 497.097 273.356 499.026 271.55C500.917 269.782 503.951 269.781 505.553 271.962C507.775 274.992 505.657 281.461 503.739 284.215C503.573 284.453 500.56 287.872 500.525 287.812C500.525 287.812 500.493 287.756 500.486 287.742C500.16 288.766 499.797 289.859 499.379 291.046C498.588 293.233 497.675 295.695 496.505 298.307C495.341 300.921 494.005 303.727 492.334 306.553C490.665 309.388 488.766 312.284 486.431 315.009C486.405 315.041 486.373 315.068 486.347 315.1C487.273 314.518 489.916 312.982 490.131 312.888C493.177 311.555 499.832 310.804 502.273 313.653C504.031 315.705 503.393 318.727 501.3 320.239C499.161 321.782 495.947 321.478 493.586 320.716C490.924 319.856 486.427 315.724 486.071 315.394C483.824 317.969 481.313 320.425 478.637 322.769C477.108 324.111 475.528 325.413 473.927 326.699C474.744 326.223 475.477 325.803 475.586 325.756C478.632 324.423 485.287 323.672 487.728 326.522C489.486 328.574 488.848 331.597 486.754 333.108C484.616 334.651 481.4 334.348 479.041 333.585C476.645 332.811 472.743 329.368 471.722 328.442C471.103 328.929 470.491 329.421 469.869 329.906C466.89 332.23 463.907 334.536 461.05 336.889C460.042 337.717 459.079 338.571 458.113 339.422C458.839 339 459.454 338.651 459.553 338.607C462.599 337.274 469.255 336.523 471.695 339.372C473.453 341.424 472.815 344.447 470.721 345.958C468.582 347.5 465.368 347.197 463.007 346.435C460.722 345.697 457.092 342.551 455.873 341.457C454.911 342.359 453.943 343.26 453.051 344.178C452.455 344.819 451.837 345.393 451.273 346.071C450.701 346.73 450.136 347.382 449.574 348.028C448.539 349.313 447.463 350.632 446.485 351.91C445.797 352.794 445.159 353.65 444.513 354.509C445.506 353.672 447.485 352.076 447.665 351.961C450.477 350.174 456.944 348.403 459.78 350.844C461.824 352.603 461.643 355.688 459.797 357.504C457.912 359.36 454.69 359.555 452.243 359.167C449.549 358.738 444.674 355.503 444.068 355.096C443.003 356.522 441.981 357.92 441.038 359.255C437.756 363.875 435.196 367.849 433.445 370.652C433.382 370.752 433.327 370.841 433.267 370.938L430.995 369.815C431.112 369.634 431.226 369.458 431.353 369.265C433.185 366.468 435.855 362.514 439.269 357.922C440.344 356.469 441.521 354.939 442.744 353.378C442.429 353.027 440.649 351.02 439.219 348.933C436.611 349.974 431.18 350.015 430.478 350.016C430.363 351.804 430.268 353.543 430.204 355.187C429.97 360.884 429.986 365.638 430.043 368.96C430.045 369.096 430.048 369.217 430.051 369.348L427.554 368.114C427.579 364.813 427.677 360.349 428.008 355.071C428.117 353.255 428.269 351.317 428.445 349.328C427.752 349.151 422.104 347.674 419.972 345.938C418.037 344.365 416.002 341.811 416.072 339.143C416.14 336.529 418.252 334.309 420.904 334.656C424.586 335.137 427.674 341.19 428.28 344.509C428.316 344.705 428.471 346.874 428.546 348.244C428.622 347.433 428.687 346.643 428.775 345.807C428.938 344.155 429.149 342.51 429.369 340.739C429.506 339.889 429.642 339.029 429.781 338.161C429.901 337.297 430.134 336.4 430.308 335.51C430.756 333.456 431.306 331.396 431.907 329.333C430.486 329.183 425.449 328.58 423.293 327.318C421.146 326.06 418.755 323.85 418.428 321.202C418.107 318.609 419.863 316.089 422.538 316.021C426.249 315.929 430.202 321.435 431.295 324.622C431.363 324.821 431.895 327.198 432.162 328.51C432.533 327.273 432.895 326.037 433.311 324.798C434.507 321.223 435.827 317.64 437.128 314.06C437.527 312.964 437.912 311.866 438.301 310.77C437.796 310.723 431.793 310.137 429.379 308.722C427.232 307.466 424.841 305.255 424.514 302.607C424.193 300.014 425.949 297.492 428.623 297.427C432.335 297.335 436.287 302.841 437.38 306.028C437.462 306.268 438.223 309.69 438.375 310.57C439.231 308.154 440.063 305.739 440.788 303.323C441.793 299.992 442.597 296.666 443.144 293.387C442.908 293.365 436.641 292.784 434.167 291.334C432.02 290.076 429.629 287.867 429.302 285.219C428.981 282.626 430.737 280.105 433.412 280.039C437.123 279.947 441.076 285.453 442.168 288.64C442.241 288.849 442.822 291.455 443.071 292.702C443.188 292.698 443.167 292.699 443.283 292.696C443.826 289.176 443.916 285.695 443.844 282.433C443.806 280.543 443.665 278.739 443.49 276.988C442.312 277.001 436.927 277.002 434.559 275.948C432.29 274.939 429.675 273.01 429.063 270.414C428.465 267.872 429.938 265.17 432.589 264.805C436.267 264.298 440.789 269.328 442.219 272.375C442.297 272.54 442.905 274.314 443.33 275.612C443.239 274.823 443.159 274.006 443.058 273.252C442.681 270.417 442.166 267.846 441.691 265.573C441.411 264.283 441.132 263.121 440.86 262.037C439.697 261.435 435.041 258.953 433.445 256.944C431.888 254.983 430.44 252.044 431.072 249.452C431.69 246.914 434.22 245.207 436.739 246.127Z" fill="#7D97F4"/>
<path d="M503.852 304.419C500.948 304.3 495.149 301.267 495.144 301.266C495.084 301.235 498.266 297.98 498.49 297.798C501.083 295.693 507.306 293.179 510.4 295.27C512.628 296.777 512.796 299.864 511.168 301.884C509.506 303.947 506.327 304.519 503.852 304.419Z" fill="#7D97F4"/>
<g opacity="0.5">
<path d="M443.927 276.417C443.859 276.425 444.752 271.921 444.84 271.644C445.862 268.432 449.692 262.837 453.403 262.844C456.078 262.849 457.89 265.328 457.626 267.928C457.357 270.584 455.015 272.848 452.897 274.155C450.41 275.688 443.931 276.417 443.927 276.417Z" fill="#F8F9FA"/>
<path d="M436.739 246.127C440.233 247.405 441.971 253.991 441.862 257.366C441.852 257.658 441.19 262.202 441.129 262.172C441.129 262.172 441.072 262.143 441.058 262.136C441.34 263.173 441.631 264.29 441.924 265.515C442.449 267.782 443.022 270.35 443.459 273.186C443.904 276.019 444.309 279.111 444.446 282.406C444.59 285.71 444.574 289.191 444.103 292.777C444.098 292.816 444.088 292.859 444.082 292.9C444.54 291.895 445.911 289.127 446.04 288.927C447.859 286.104 453.002 281.737 456.581 282.743C459.16 283.468 460.265 286.346 459.336 288.782C458.388 291.272 455.543 292.825 453.162 293.515C450.477 294.294 444.489 293.374 444.012 293.299C443.532 296.709 442.767 300.169 441.806 303.627C441.258 305.605 440.646 307.579 440.006 309.551C440.429 308.695 440.814 307.932 440.879 307.832C442.698 305.009 447.841 300.643 451.42 301.648C453.999 302.372 455.102 305.25 454.175 307.688C453.228 310.177 450.382 311.73 448 312.421C445.583 313.122 440.463 312.442 439.11 312.244C438.857 312.998 438.613 313.754 438.357 314.506C437.132 318.118 435.892 321.718 434.784 325.287C434.392 326.543 434.052 327.797 433.708 329.05C434.084 328.29 434.407 327.653 434.466 327.561C436.285 324.738 441.428 320.371 445.009 321.377C447.588 322.101 448.692 324.98 447.764 327.418C446.817 329.906 443.97 331.46 441.588 332.15C439.282 332.818 434.551 332.235 432.941 332.007C432.627 333.299 432.309 334.595 432.061 335.862C431.91 336.732 431.707 337.558 431.604 338.439C431.484 339.31 431.364 340.172 431.247 341.026C431.08 342.68 430.897 344.384 430.772 346C430.678 347.124 430.609 348.196 430.536 349.277C430.911 348.02 431.696 345.577 431.785 345.38C432.7 343.339 434.967 340.406 437.467 338.792C437.6 338.49 437.759 338.201 437.946 337.928C439.418 335.787 442.381 335.122 444.406 336.902C447.217 339.373 446.515 346.155 445.222 349.264C445.146 349.448 444.099 351.344 443.421 352.529C443.924 351.894 444.405 351.271 444.932 350.625C445.963 349.338 447.029 348.085 448.171 346.732C448.746 346.099 449.326 345.46 449.912 344.813C450.479 344.16 451.16 343.543 451.787 342.898C453.273 341.436 454.848 340.028 456.465 338.644C455.362 337.722 451.486 334.389 450.372 332.122C449.263 329.867 448.465 326.681 449.626 324.288C450.763 321.945 453.593 320.829 455.859 322.277C459.005 324.285 459.32 331.099 458.504 334.372C458.453 334.575 457.609 336.857 457.122 338.102C458.101 337.278 459.074 336.451 460.091 335.651C463.026 333.34 466.066 331.094 469.09 328.84C470.017 328.15 470.931 327.45 471.851 326.755C471.455 326.43 466.766 322.57 465.518 320.032C464.409 317.778 463.611 314.591 464.772 312.198C465.909 309.855 468.739 308.739 471.005 310.187C474.151 312.196 474.466 319.008 473.65 322.281C473.588 322.529 472.369 325.809 472.019 326.629C474.042 325.095 476.044 323.548 477.957 321.94C480.6 319.726 483.072 317.406 485.304 314.976C485.119 314.825 480.207 310.818 478.928 308.22C477.819 305.964 477.021 302.778 478.182 300.384C479.319 298.041 482.149 296.925 484.415 298.373C487.561 300.382 487.874 307.194 487.06 310.468C487.006 310.682 486.079 313.186 485.612 314.364C485.71 314.427 485.692 314.416 485.79 314.479C488.151 311.847 490.112 308.995 491.818 306.233C492.809 304.635 493.67 303.052 494.472 301.492C493.482 300.842 488.99 297.817 487.585 295.607C486.24 293.491 485.104 290.412 485.999 287.903C486.876 285.447 489.569 284.021 491.977 285.207C495.321 286.852 496.367 293.587 495.91 296.933C495.885 297.115 495.432 298.935 495.084 300.256C495.435 299.547 495.811 298.821 496.134 298.134C497.356 295.559 498.317 293.124 499.153 290.962C499.618 289.728 500.015 288.603 500.375 287.546C499.731 286.391 497.191 281.704 496.949 279.132C496.712 276.621 497.097 273.356 499.026 271.55C500.917 269.782 503.951 269.781 505.553 271.962C507.775 274.992 505.657 281.461 503.739 284.215C503.573 284.453 500.56 287.872 500.525 287.812C500.525 287.812 500.493 287.756 500.486 287.742C500.16 288.766 499.797 289.859 499.379 291.046C498.588 293.233 497.675 295.695 496.505 298.307C495.341 300.921 494.005 303.727 492.334 306.553C490.665 309.388 488.766 312.284 486.431 315.009C486.405 315.041 486.373 315.068 486.347 315.1C487.273 314.518 489.916 312.982 490.131 312.888C493.177 311.555 499.832 310.804 502.273 313.653C504.031 315.705 503.393 318.727 501.3 320.239C499.161 321.782 495.947 321.478 493.586 320.716C490.924 319.856 486.427 315.724 486.071 315.394C483.824 317.969 481.313 320.425 478.637 322.769C477.108 324.111 475.528 325.413 473.927 326.699C474.744 326.223 475.477 325.803 475.586 325.756C478.632 324.423 485.287 323.672 487.728 326.522C489.486 328.574 488.848 331.597 486.754 333.108C484.616 334.651 481.4 334.348 479.041 333.585C476.645 332.811 472.743 329.368 471.722 328.442C471.103 328.929 470.491 329.421 469.869 329.906C466.89 332.23 463.907 334.536 461.05 336.889C460.042 337.717 459.079 338.571 458.113 339.422C458.839 339 459.454 338.651 459.553 338.607C462.599 337.274 469.255 336.523 471.695 339.372C473.453 341.424 472.815 344.447 470.721 345.958C468.582 347.5 465.368 347.197 463.007 346.435C460.722 345.697 457.092 342.551 455.873 341.457C454.911 342.359 453.943 343.26 453.051 344.178C452.455 344.819 451.837 345.393 451.273 346.071C450.701 346.73 450.136 347.382 449.574 348.028C448.539 349.313 447.463 350.632 446.485 351.91C445.797 352.794 445.159 353.65 444.513 354.509C445.506 353.672 447.485 352.076 447.665 351.961C450.477 350.174 456.944 348.403 459.78 350.844C461.824 352.603 461.643 355.688 459.797 357.504C457.912 359.36 454.69 359.555 452.243 359.167C449.549 358.738 444.674 355.503 444.068 355.096C443.003 356.522 441.981 357.92 441.038 359.255C437.756 363.875 435.196 367.849 433.445 370.652C433.382 370.752 433.327 370.841 433.267 370.938L430.995 369.815C431.112 369.634 431.226 369.458 431.353 369.265C433.185 366.468 435.855 362.514 439.269 357.922C440.344 356.469 441.521 354.939 442.744 353.378C442.429 353.027 440.649 351.02 439.219 348.933C436.611 349.974 431.18 350.015 430.478 350.016C430.363 351.804 430.268 353.543 430.204 355.187C429.97 360.884 429.986 365.638 430.043 368.96C430.045 369.096 430.048 369.217 430.051 369.348L427.554 368.114C427.579 364.813 427.677 360.349 428.008 355.071C428.117 353.255 428.269 351.317 428.445 349.328C427.752 349.151 422.104 347.674 419.972 345.938C418.037 344.365 416.002 341.811 416.072 339.143C416.14 336.529 418.252 334.309 420.904 334.656C424.586 335.137 427.674 341.19 428.28 344.509C428.316 344.705 428.471 346.874 428.546 348.244C428.622 347.433 428.687 346.643 428.775 345.807C428.938 344.155 429.149 342.51 429.369 340.739C429.506 339.889 429.642 339.029 429.781 338.161C429.901 337.297 430.134 336.4 430.308 335.51C430.756 333.456 431.306 331.396 431.907 329.333C430.486 329.183 425.449 328.58 423.293 327.318C421.146 326.06 418.755 323.85 418.428 321.202C418.107 318.609 419.863 316.089 422.538 316.021C426.249 315.929 430.202 321.435 431.295 324.622C431.363 324.821 431.895 327.198 432.162 328.51C432.533 327.273 432.895 326.037 433.311 324.798C434.507 321.223 435.827 317.64 437.128 314.06C437.527 312.964 437.912 311.866 438.301 310.77C437.796 310.723 431.793 310.137 429.379 308.722C427.232 307.466 424.841 305.255 424.514 302.607C424.193 300.014 425.949 297.492 428.623 297.427C432.335 297.335 436.287 302.841 437.38 306.028C437.462 306.268 438.223 309.69 438.375 310.57C439.231 308.154 440.063 305.739 440.788 303.323C441.793 299.992 442.597 296.666 443.144 293.387C442.908 293.365 436.641 292.784 434.167 291.334C432.02 290.076 429.629 287.867 429.302 285.219C428.981 282.626 430.737 280.105 433.412 280.039C437.123 279.947 441.076 285.453 442.168 288.64C442.241 288.849 442.822 291.455 443.071 292.702C443.188 292.698 443.167 292.699 443.283 292.696C443.826 289.176 443.916 285.695 443.844 282.433C443.806 280.543 443.665 278.739 443.49 276.988C442.312 277.001 436.927 277.002 434.559 275.948C432.29 274.939 429.675 273.01 429.063 270.414C428.465 267.872 429.938 265.17 432.589 264.805C436.267 264.298 440.789 269.328 442.219 272.375C442.297 272.54 442.905 274.314 443.33 275.612C443.239 274.823 443.159 274.006 443.058 273.252C442.681 270.417 442.166 267.846 441.691 265.573C441.411 264.283 441.132 263.121 440.86 262.037C439.697 261.435 435.041 258.953 433.445 256.944C431.888 254.983 430.44 252.044 431.072 249.452C431.69 246.914 434.22 245.207 436.739 246.127Z" fill="#F8F9FA"/>
<path d="M503.852 304.419C500.948 304.3 495.149 301.267 495.144 301.266C495.084 301.235 498.266 297.98 498.49 297.798C501.083 295.693 507.306 293.179 510.4 295.27C512.628 296.777 512.796 299.864 511.168 301.884C509.506 303.947 506.327 304.519 503.852 304.419Z" fill="#F8F9FA"/>
</g>
<path d="M469.976 378.414C469.976 378.414 452.376 335.188 442.519 337.067C432.662 338.946 459.416 405.978 459.416 405.978C459.416 405.978 428.439 346.464 407.318 346.464C386.198 346.464 415.063 412.243 441.815 434.168C441.815 434.168 399.574 387.81 374.934 397.834C350.292 407.857 424.215 454.842 424.215 454.842C424.215 454.842 381.27 441.06 386.198 451.71C391.126 462.36 404.503 464.239 404.503 464.239L355.926 466.745H524.892L486.875 462.986C486.875 462.986 526.3 442.94 515.74 434.796C505.18 426.651 481.946 444.193 481.946 444.193C481.946 444.193 522.075 399.087 514.331 382.173C506.586 365.259 472.089 412.869 472.089 412.869C472.089 412.869 500.251 352.103 494.618 341.454C488.985 330.802 469.976 378.414 469.976 378.414Z" fill="#7D97F4"/>
<path opacity="0.4" d="M469.976 378.414C469.976 378.414 452.376 335.188 442.519 337.067C432.662 338.946 459.416 405.978 459.416 405.978C459.416 405.978 428.439 346.464 407.318 346.464C386.198 346.464 415.063 412.243 441.815 434.168C441.815 434.168 399.574 387.81 374.934 397.834C350.292 407.857 424.215 454.842 424.215 454.842C424.215 454.842 381.27 441.06 386.198 451.71C391.126 462.36 404.503 464.239 404.503 464.239L355.926 466.745H524.892L486.875 462.986C486.875 462.986 526.3 442.94 515.74 434.796C505.18 426.651 481.946 444.193 481.946 444.193C481.946 444.193 522.075 399.087 514.331 382.173C506.586 365.259 472.089 412.869 472.089 412.869C472.089 412.869 500.251 352.103 494.618 341.454C488.985 330.802 469.976 378.414 469.976 378.414Z" fill="#F8F9FA"/>
<path d="M475.608 380.691C460.12 427.303 460.12 460.291 460.12 460.291C460.12 460.291 478.425 461.007 497.434 446.666" stroke="#4647ED" stroke-miterlimit="10" stroke-linecap="round" stroke-linejoin="round"/>
<path d="M467.864 405.789C467.864 405.789 464.343 388.578 455.191 364.914" stroke="#4647ED" stroke-miterlimit="10" stroke-linecap="round" stroke-linejoin="round"/>
<path d="M422.102 378.539L461.527 438.059C461.527 438.059 488.279 415.111 497.432 402.203" stroke="#4647ED" stroke-miterlimit="10" stroke-linecap="round" stroke-linejoin="round"/>
<path d="M460.824 452.4C460.824 452.4 419.286 432.322 402.39 420.848" stroke="#4647ED" stroke-miterlimit="10" stroke-linecap="round" stroke-linejoin="round"/>
<path d="M423.545 466.744H297.042C291.865 466.744 287.668 462.47 287.668 457.196V141.001C287.668 135.728 291.864 131.453 297.042 131.453H423.544C428.72 131.453 432.918 135.727 432.918 141.001V457.196C432.918 462.469 428.722 466.744 423.545 466.744Z" fill="#F8F9FA" stroke="#4647ED" stroke-miterlimit="10" stroke-linecap="round" stroke-linejoin="round"/>
<path d="M428.067 190.151C426.999 190.151 426.133 189.269 426.133 188.181V161.833C426.133 160.745 427 159.863 428.067 159.863C429.134 159.863 430 160.745 430 161.833V188.18C430 189.268 429.135 190.151 428.067 190.151Z" fill="#4647ED"/>
<path d="M428.067 214.561C426.999 214.561 426.133 213.68 426.133 212.592V197.868C426.133 196.78 427 195.898 428.067 195.898C429.134 195.898 430 196.78 430 197.868V212.592C430 213.68 429.135 214.561 428.067 214.561Z" fill="#4647ED"/>
<path d="M412.587 466.744H286.084C280.907 466.744 276.71 462.47 276.71 457.196V141.001C276.71 135.728 280.906 131.453 286.084 131.453H412.586C417.762 131.453 421.96 135.727 421.96 141.001V457.196C421.96 462.469 417.764 466.744 412.587 466.744Z" fill="#4647ED" stroke="#4647ED" stroke-miterlimit="10" stroke-linecap="round" stroke-linejoin="round"/>
<path d="M412.289 153.777H286.381V441.356H412.289V153.777Z" fill="#7D97F4"/>
<path d="M330.641 144.586H364.162" stroke="#F8F9FA" stroke-width="3" stroke-miterlimit="10" stroke-linecap="round" stroke-linejoin="round"/>
<path d="M344.823 451.534C344.823 453.89 343.38 455.802 341.601 455.802C339.821 455.802 338.378 453.891 338.378 451.534C338.378 449.177 339.821 447.266 341.601 447.266C343.38 447.266 344.823 449.177 344.823 451.534Z" fill="#F8F9FA"/>
<path d="M349.336 225.343C361.395 225.343 371.171 213.731 371.171 199.408C371.171 185.084 361.395 173.473 349.336 173.473C337.276 173.473 327.5 185.084 327.5 199.408C327.5 213.731 337.276 225.343 349.336 225.343Z" fill="#F8F9FA"/>
<path d="M349.336 199.079C353.915 199.079 357.627 194.67 357.627 189.231C357.627 183.792 353.915 179.383 349.336 179.383C344.756 179.383 341.044 183.792 341.044 189.231C341.044 194.67 344.756 199.079 349.336 199.079Z" fill="#4647ED" stroke="#4647ED" stroke-miterlimit="10" stroke-linecap="round" stroke-linejoin="round"/>
<path d="M349.336 201.707C341.016 201.707 334.271 208.174 334.271 216.151C334.271 216.905 334.35 217.641 334.467 218.364C338.367 222.682 343.584 225.343 349.336 225.343C355.087 225.343 360.304 222.682 364.204 218.364C364.32 217.641 364.4 216.906 364.4 216.151C364.4 208.175 357.654 201.707 349.336 201.707Z" fill="#4647ED" stroke="#4647ED" stroke-miterlimit="10" stroke-linecap="round" stroke-linejoin="round"/>
<path d="M375.883 312.331H322.789C319.982 312.331 317.705 309.82 317.705 306.723V273.369C317.705 254.128 331.894 238.477 349.336 238.477C366.777 238.477 380.966 254.129 380.966 273.369V306.723C380.966 309.82 378.69 312.331 375.883 312.331ZM327.872 301.115H370.799V273.369C370.799 260.314 361.171 249.691 349.336 249.691C337.5 249.691 327.872 260.312 327.872 273.369V301.115Z" fill="#4647ED"/>
<path d="M386.191 289.57H312.48V360.601H386.191V289.57Z" fill="#F8F9FA"/>
<path d="M360.077 338.482L354.61 325.085C356.929 323.347 358.451 320.416 358.451 317.091C358.451 311.757 354.531 307.434 349.697 307.434C344.862 307.434 340.942 311.757 340.942 317.091C340.942 320.416 342.466 323.347 344.783 325.085L339.317 338.482H360.077Z" fill="#4647ED" stroke="#4647ED" stroke-miterlimit="10" stroke-linecap="round" stroke-linejoin="round"/>
<path d="M326.882 424.437C326.997 424.523 327.13 424.564 327.263 424.564C327.461 424.564 327.657 424.471 327.783 424.296L412.289 307.202V304.984L326.744 423.52C326.534 423.812 326.596 424.223 326.882 424.437Z" fill="#F8F9FA"/>
<path d="M395.29 195.956C395.079 196.247 395.142 196.659 395.429 196.873C395.543 196.959 395.677 197.001 395.81 197.001C396.008 197.001 396.203 196.908 396.33 196.733L412.289 174.621V172.402L395.29 195.956Z" fill="#F8F9FA"/>
<path d="M286.381 349.083L390.674 204.572C390.884 204.279 390.822 203.869 390.535 203.654C390.252 203.442 389.847 203.501 389.634 203.794L286.381 346.865V349.083Z" fill="#F8F9FA"/>
<path d="M317.07 438.69C317.268 438.69 317.463 438.597 317.59 438.422L323.467 430.279C323.677 429.987 323.615 429.576 323.329 429.361C323.046 429.148 322.641 429.209 322.428 429.502L316.551 437.645C316.341 437.937 316.403 438.348 316.689 438.563C316.803 438.649 316.937 438.69 317.07 438.69Z" fill="#F8F9FA"/>
<path d="M412.289 330.645L342.915 426.771C342.704 427.064 342.766 427.474 343.053 427.689C343.168 427.775 343.302 427.816 343.434 427.816C343.632 427.816 343.828 427.723 343.954 427.548L412.289 332.862V330.645Z" fill="#F8F9FA"/>
<path d="M168.616 195.544C168.616 195.544 170.272 192.434 170.272 187.038C170.272 181.642 163.861 178.519 156.333 177.667C148.806 176.816 145.46 179.939 146.576 181.927C147.691 183.914 150.758 186.186 150.758 186.186C150.758 186.186 143.231 181.927 138.212 185.335C133.194 188.743 140.443 187.322 139.048 190.731C137.653 194.139 129.848 192.718 127.897 201.805C125.946 210.893 131.521 219.979 126.503 223.955C121.486 227.93 106.431 222.535 101.971 232.474C97.5107 242.413 103.818 246.817 93.2234 253.064C82.629 259.311 74.9283 265.413 77.9948 280.748C81.0614 296.082 91.0981 301.476 110.891 296.082C130.684 290.686 129.29 278.477 135.703 265.981C142.116 253.487 152.151 256.043 155.218 248.943C158.284 241.845 154.382 233.325 154.66 226.794C154.938 220.263 161.351 218.842 163.86 211.176C166.37 203.508 168.616 195.544 168.616 195.544Z" fill="#4647ED" stroke="#4647ED" stroke-miterlimit="10" stroke-linecap="round" stroke-linejoin="round"/>
<path d="M80.3 280.52C79.8028 281.533 79.534 282.666 79.534 283.957" stroke="#F8F9FA" stroke-width="0.5" stroke-miterlimit="10" stroke-linecap="round" stroke-linejoin="round"/>
<path d="M157.914 189.903C157.914 189.903 154.424 185.803 161.135 187.715C169.576 190.123 159.665 200.068 155.845 202.069C148.201 206.072 138.08 204.794 132.145 212.049C126.777 218.611 134.024 225.446 130.802 230.641C127.582 235.835 114.698 232.828 110.402 239.116C106.108 245.404 118.187 258.802 105.839 266.184C96.908 271.523 87.1353 273.573 82.4099 277.816" stroke="#F8F9FA" stroke-width="0.5" stroke-miterlimit="10" stroke-linecap="round" stroke-linejoin="round"/>
<path d="M137.886 214.176C137.236 215.969 136.84 217.954 137.245 219.705C138.318 224.353 144.492 233.103 138.855 238.023C133.218 242.945 123.555 242.671 121.944 248.413C120.333 254.155 123.554 270.012 118.186 277.394C112.817 284.776 102.349 284.23 96.7115 289.15C91.0745 294.072 91.8796 296.806 91.8796 296.806" stroke="#F8F9FA" stroke-width="0.5" stroke-miterlimit="10" stroke-linecap="round" stroke-linejoin="round"/>
<path d="M140.734 208.77C140.734 208.77 140.11 209.629 139.377 210.949" stroke="#F8F9FA" stroke-width="0.5" stroke-miterlimit="10" stroke-linecap="round" stroke-linejoin="round"/>
<path d="M172.223 280.079L173.592 290.951C173.592 290.951 180.708 298.199 185.908 302.659C191.108 307.118 204.518 316.596 204.518 316.596L197.676 318.548C197.676 318.548 175.508 305.167 171.129 304.052C166.751 302.936 163.467 296.525 162.098 294.574C160.729 292.623 168.666 278.127 172.223 280.079Z" fill="#F8F9FA" stroke="#4647ED" stroke-miterlimit="10" stroke-linecap="round" stroke-linejoin="round"/>
<path d="M185.773 456.673C185.773 456.673 192.469 462.444 195.216 464.368C197.962 466.291 201.224 467.166 200.709 468.215C200.194 469.264 198.821 470.313 192.297 469.439C185.773 468.565 183.885 466.291 182.683 465.941C181.481 465.592 178.563 466.466 176.331 465.067C174.099 463.668 177.639 455.336 177.639 455.336C177.639 455.336 180.966 459.471 185.773 456.673Z" fill="#F8F9FA" stroke="#4647ED" stroke-miterlimit="10" stroke-linecap="round" stroke-linejoin="round"/>
<path d="M200.709 468.214C200.737 468.16 200.747 468.106 200.753 468.053C196.783 468.6 193.005 467.8 189.561 466.973C185.339 465.962 184.097 463.685 180.123 463.685C178.115 463.685 176.555 463.298 175.498 462.914C175.521 463.896 175.746 464.7 176.332 465.068C178.564 466.467 181.482 465.593 182.684 465.942C183.886 466.292 185.774 468.565 192.298 469.44C198.821 470.313 200.194 469.264 200.709 468.214Z" fill="#F8F9FA" stroke="#4647ED" stroke-miterlimit="10" stroke-linecap="round" stroke-linejoin="round"/>
<path d="M150.689 223.594C150.689 223.594 151.983 232.441 150.319 236.018C148.656 239.595 143.481 239.971 139.045 240.724C134.61 241.476 124.445 245.43 125.554 255.595C126.663 265.76 139.415 287.786 139.415 293.998C139.415 300.21 135.534 303.41 131.283 315.458C127.033 327.506 127.587 349.908 128.881 364.403C130.175 378.898 134.425 392.64 134.425 392.64C134.425 392.64 123.707 410.147 119.086 417.677C114.466 425.207 97.8315 457.962 97.8315 457.962C97.8315 457.962 97.8315 459.092 100.419 459.844C103.006 460.597 105.963 460.221 105.963 460.221C105.963 460.221 137.751 421.254 143.665 414.665C149.579 408.077 155.124 396.593 155.863 391.323C156.602 386.052 155.678 353.861 155.678 353.861C155.678 353.861 162.331 370.05 167.506 378.333C172.682 386.616 176.18 393.958 176.18 393.958C176.18 393.958 174.899 405.064 176.193 414.477C177.488 423.89 176.395 454.109 177.689 456.556C178.983 459.003 183.982 457.982 185.091 456.852C186.199 455.722 186.729 448.362 186.729 448.362C186.729 448.362 188.946 425.396 190.24 414.665C191.534 403.935 193.752 394.711 193.012 392.264C192.273 389.817 187.652 363.65 184.142 351.226C180.63 338.802 169.911 315.647 167.509 309.623C165.106 303.599 163.812 298.139 164.182 296.256C164.551 294.374 171.759 283.08 173.608 280.067C175.456 277.056 176.195 271.596 173.977 266.701C171.759 261.807 173.977 255.217 173.608 251.264C173.238 247.311 167.509 245.617 164.551 244.11C161.595 242.604 160.485 239.216 160.485 236.392C160.485 233.567 162.149 229.615 162.149 229.615C162.149 229.615 153.091 223.594 150.689 223.594Z" fill="#F8F9FA" stroke="#4647ED" stroke-miterlimit="10" stroke-linecap="round" stroke-linejoin="round"/>
<path d="M173.084 263.857C173.084 263.857 170.985 258.266 170.663 256.129" stroke="#4647ED" stroke-miterlimit="10" stroke-linecap="round" stroke-linejoin="round"/>
<path d="M149.085 284.819C149.085 284.819 152.429 285.576 159.12 282.168" stroke="#4647ED" stroke-miterlimit="10" stroke-linecap="round" stroke-linejoin="round"/>
<path d="M184.14 351.224C180.784 339.349 170.85 317.685 167.879 310.53C153.637 315.963 140.385 311.321 134.15 308.336C133.244 310.333 132.275 312.647 131.283 315.456C127.033 327.504 127.587 349.906 128.881 364.4C130.175 378.895 134.425 392.638 134.425 392.638C134.425 392.638 123.707 410.145 119.086 417.674C114.466 425.205 97.8315 457.96 97.8315 457.96C97.8315 457.96 97.8315 459.09 100.419 459.842C103.006 460.595 105.963 460.218 105.963 460.218C105.963 460.218 137.751 421.251 143.665 414.663C149.579 408.075 155.124 396.591 155.863 391.321C156.602 386.049 155.678 353.859 155.678 353.859C155.678 353.859 162.331 370.048 167.506 378.331C172.682 386.614 176.18 393.956 176.18 393.956C176.18 393.956 174.899 405.062 176.193 414.475C177.488 423.888 176.395 454.106 177.689 456.553C178.983 459 183.982 457.98 185.091 456.85C186.199 455.72 186.729 448.36 186.729 448.36C186.729 448.36 188.946 425.394 190.24 414.663C191.534 403.933 193.752 394.708 193.012 392.261C192.272 389.815 187.652 363.648 184.14 351.224Z" fill="#4647ED" stroke="#4647ED" stroke-miterlimit="10" stroke-linecap="round" stroke-linejoin="round"/>
<path d="M256.521 339.27V336.807H258.552V317.492H256.521H236.542H234.51V336.807H236.542V339.27H234.507V343.754H242.308V342.248H250.755V343.754H258.556V339.27H256.521Z" fill="#7D97F4" stroke="#4647ED" stroke-miterlimit="10" stroke-linecap="round" stroke-linejoin="round"/>
<path d="M266.775 320.338H127.346V311.715H266.775C267.942 311.715 268.888 312.678 268.888 313.866V318.186C268.888 319.375 267.943 320.338 266.775 320.338Z" fill="#7D97F4" stroke="#4647ED" stroke-miterlimit="10" stroke-linecap="round" stroke-linejoin="round"/>
<path d="M227.431 321.63H218.933C218.288 321.63 217.765 321.097 217.765 320.44V311.612C217.765 310.955 218.288 310.422 218.933 310.422H227.431C228.076 310.422 228.6 310.955 228.6 311.612V320.44C228.601 321.097 228.077 321.63 227.431 321.63Z" fill="#7D97F4" stroke="#4647ED" stroke-miterlimit="10" stroke-linecap="round" stroke-linejoin="round"/>
<path d="M131.728 319.647C133.693 307.428 125.56 295.9 113.563 293.899C101.566 291.898 90.2483 300.182 88.2839 312.401C86.3195 324.621 94.4524 336.149 106.449 338.15C118.446 340.151 129.764 331.867 131.728 319.647Z" fill="#7D97F4" stroke="#4647ED" stroke-miterlimit="10" stroke-linecap="round" stroke-linejoin="round"/>
<path d="M114.516 316.027C117.126 314.637 118.881 312.092 118.881 309.171C118.881 304.766 114.901 301.195 109.992 301.195C105.084 301.195 101.104 304.766 101.104 309.171C101.104 312.09 102.859 314.637 105.468 316.027C102.859 317.416 101.104 319.962 101.104 322.883C101.104 327.287 105.084 330.858 109.992 330.858C114.901 330.858 118.881 327.287 118.881 322.883C118.881 319.963 117.126 317.417 114.516 316.027Z" fill="#F8F9FA" stroke="#4647ED" stroke-miterlimit="10" stroke-linecap="round" stroke-linejoin="round"/>
<path d="M200.173 320.521C200.173 320.521 207.053 323.48 209.194 323.48C211.335 323.48 213.781 321.299 215.004 318.652C216.227 316.005 216.227 314.759 215.462 315.381C214.697 316.004 213.933 316.627 213.933 316.627C213.933 316.627 215.156 313.98 213.781 314.291C212.405 314.602 211.64 316.16 211.64 316.16C211.64 316.16 211.487 313.824 210.264 314.915C209.041 316.005 208.124 317.406 208.124 317.406C208.124 317.406 207.971 314.448 207.206 315.226C206.441 316.005 203.537 320.209 203.537 320.209L200.173 320.521Z" fill="#F8F9FA" stroke="#4647ED" stroke-miterlimit="10" stroke-linecap="round" stroke-linejoin="round"/>
<path d="M208.122 317.406C208.122 317.406 207.664 321.144 205.371 321.767L208.122 317.406Z" fill="#F8F9FA"/>
<path d="M208.122 317.406C208.122 317.406 207.664 321.144 205.371 321.767" stroke="#4647ED" stroke-miterlimit="10" stroke-linecap="round" stroke-linejoin="round"/>
<path d="M211.639 316.16C211.639 316.16 210.416 322.078 208.581 323.013L211.639 316.16Z" fill="#F8F9FA"/>
<path d="M211.639 316.16C211.639 316.16 210.416 322.078 208.581 323.013" stroke="#4647ED" stroke-miterlimit="10" stroke-linecap="round" stroke-linejoin="round"/>
<path d="M213.932 316.629C213.932 316.629 212.556 321.301 211.486 322.858L213.932 316.629Z" fill="#F8F9FA"/>
<path d="M213.932 316.629C213.932 316.629 212.556 321.301 211.486 322.858" stroke="#4647ED" stroke-miterlimit="10" stroke-linecap="round" stroke-linejoin="round"/>
<path d="M164.169 243.871C161.512 242.273 160.484 239.087 160.484 236.394C160.484 233.571 162.148 229.618 162.148 229.618C162.148 229.618 153.092 223.594 150.689 223.594C150.689 223.594 151.983 232.441 150.319 236.018C149.791 237.155 148.906 237.967 147.803 238.571C149.016 242.757 153.935 252.105 156.618 255.47C160 259.709 161.628 250.743 164.169 243.871Z" fill="#F8F9FA" stroke="#4647ED" stroke-miterlimit="10" stroke-linecap="round" stroke-linejoin="round"/>
<path d="M136.224 241.945C136.224 241.945 129.193 242.741 125.549 249.902C121.903 257.064 105.974 289.575 107.332 291.52C115.074 302.614 143.244 310.596 146.108 313.513C148.972 316.43 152.628 319.92 155.492 321.776C158.356 323.633 164.085 322.838 165.126 322.307C166.168 321.776 166.949 319.39 165.126 319.39C163.304 319.39 162.37 318.049 162.11 316.989C161.849 315.927 164.974 318.05 166.537 317.254C168.098 316.458 163.044 313.555 161.481 312.23C159.918 310.904 158.617 309.047 156.534 309.047C154.452 309.047 150.538 309.001 150.538 309.001C150.538 309.001 140.944 301.92 135.149 296.651C127.34 289.552 120.459 285.726 120.459 285.726L138.046 256.268" fill="#F8F9FA"/>
<path d="M136.224 241.945C136.224 241.945 129.193 242.741 125.549 249.902C121.903 257.064 105.974 289.575 107.332 291.52C115.074 302.614 143.244 310.596 146.108 313.513C148.972 316.43 152.628 319.92 155.492 321.776C158.356 323.633 164.085 322.838 165.126 322.307C166.168 321.776 166.949 319.39 165.126 319.39C163.304 319.39 162.37 318.049 162.11 316.989C161.849 315.927 164.974 318.05 166.537 317.254C168.098 316.458 163.044 313.555 161.481 312.23C159.918 310.904 158.617 309.047 156.534 309.047C154.452 309.047 150.538 309.001 150.538 309.001C150.538 309.001 140.944 301.92 135.149 296.651C127.34 289.552 120.459 285.726 120.459 285.726L138.046 256.268" stroke="#4647ED" stroke-miterlimit="10" stroke-linecap="round" stroke-linejoin="round"/>
<path d="M161.481 312.226C159.918 310.9 158.617 309.043 156.534 309.043C154.452 309.043 150.539 308.997 150.539 308.997C150.539 308.997 140.945 301.915 135.149 296.646C127.34 289.548 120.459 285.721 120.459 285.721L127.498 273.933C122.88 270.986 118.027 270.504 115.58 270.473C110.895 280.529 106.6 290.467 107.332 291.516C115.074 302.61 143.244 310.591 146.108 313.509C148.972 316.426 152.628 319.916 155.492 321.772C158.357 323.628 164.085 322.834 165.127 322.303C166.169 321.772 166.949 319.386 165.127 319.386C163.304 319.386 162.37 318.045 162.11 316.984C161.849 315.923 164.974 318.046 166.537 317.25C168.098 316.455 163.043 313.552 161.481 312.226Z" fill="#F8F9FA" stroke="#4647ED" stroke-miterlimit="10" stroke-linecap="round" stroke-linejoin="round"/>
<path d="M171.018 210.606C170.093 208.724 170.093 207.217 170.464 204.582C170.833 201.947 168.616 195.547 168.616 195.547C168.616 195.547 168.596 195.563 168.581 195.573C166.321 199.564 159.784 201.925 156.886 202.834C153.702 203.831 158.355 206.076 157.865 209.07C157.375 212.063 151.007 213.809 151.007 213.809C151.007 213.809 149.186 209.817 146.599 209.817C144.012 209.817 142.182 215.847 143.661 219.048C145.139 222.249 148.287 221.524 148.287 221.524C148.287 221.524 148.102 227.172 151.614 228.866C155.125 230.561 161.039 232.82 163.257 233.196C165.475 233.572 167.692 232.443 168.617 229.054C169.541 225.666 170.096 218.701 170.096 218.701C170.096 218.701 173.423 216.442 174.346 215.124C175.269 213.806 171.943 212.489 171.018 210.606Z" fill="#F8F9FA" stroke="#4647ED" stroke-miterlimit="10" stroke-linecap="round" stroke-linejoin="round"/>
<path d="M167.418 210.691C167.418 211.724 167.089 212.561 166.682 212.561C166.276 212.561 165.947 211.723 165.947 210.691C165.947 209.657 166.276 208.82 166.682 208.82C167.089 208.82 167.418 209.657 167.418 210.691Z" fill="#4647ED"/>
<path d="M164.234 207.573C164.234 207.573 166.193 205.327 167.663 205.826" stroke="#4647ED" stroke-miterlimit="10" stroke-linecap="round" stroke-linejoin="round"/>
<path d="M167.663 223.04C167.663 223.04 164.969 224.037 162.519 221.793" stroke="#4647ED" stroke-miterlimit="10" stroke-linecap="round" stroke-linejoin="round"/>
<path d="M97.8316 457.961C97.8316 457.961 93.4117 466.988 93.5834 468.212C93.755 469.436 102.511 475.906 106.631 478.18C110.751 480.453 118.134 480.803 117.619 477.655C117.104 474.507 110.065 472.409 108.348 467.687C106.631 462.966 105.963 460.22 105.963 460.22C105.963 460.22 101.736 460.475 97.8316 457.961Z" fill="#F8F9FA" stroke="#4647ED" stroke-miterlimit="10" stroke-linecap="round" stroke-linejoin="round"/>
<path d="M117.62 477.7C115.267 478.032 112.021 477.95 108.347 476.329C101.989 473.522 95.8282 467.783 94.1528 466.156C93.7775 467.142 93.543 467.911 93.5857 468.21C93.7574 469.434 102.513 475.904 106.633 478.178C110.729 480.438 118.046 480.793 117.62 477.7Z" fill="#F8F9FA" stroke="#4647ED" stroke-miterlimit="10" stroke-linecap="round" stroke-linejoin="round"/>
</svg>
